<svg width="56" height="56" viewBox="0 0 56 56" fill="none" xmlns="http://www.w3.org/2000/svg">
<path fill-rule="evenodd" clip-rule="evenodd" d="M5.11838 5.11687L5.11688 5.11838C3.08086 7.14975 2.02105 9.74917 1.48064 13.4299C0.935615 17.142 0.933333 21.8352 0.933333 27.9949C0.933333 34.1546 0.935613 38.8479 1.48065 42.5613C2.02106 46.2432 3.08095 48.8457 5.11763 50.8824L5.11838 50.8831C7.14975 52.9191 9.74917 53.9789 13.4299 54.5194C17.142 55.0644 21.8352 55.0667 27.9949 55.0667C34.1546 55.0667 38.8479 55.0644 42.5613 54.5194C46.2432 53.9789 48.8457 52.9191 50.8824 50.8824C52.9192 48.8456 53.979 46.2455 54.5194 42.5651C55.0644 38.8529 55.0667 34.1597 55.0667 27.9949C55.0667 21.8301 55.0644 17.1369 54.5194 13.4248C53.979 9.74436 52.9192 7.14429 50.8824 5.10747C48.8458 3.07588 46.2457 2.01855 42.5654 1.47942C38.853 0.935605 34.1597 0.933333 27.9949 0.933333C21.8301 0.933333 17.1369 0.935618 13.4261 1.48063C9.74692 2.021 7.1499 3.08072 5.11838 5.11687ZM51.5423 4.44751C56 8.90517 56 15.7186 56 27.9949C56 40.2713 56 47.0847 51.5423 51.5423C47.0847 56 40.2611 56 27.9949 56C15.7287 56 8.90517 56 4.45766 51.5423C0 47.0847 0 40.2611 0 27.9949C0 15.7287 0 8.90517 4.45766 4.45766C8.90517 0 15.7186 0 27.9949 0C40.2713 0 47.0847 0 51.5423 4.44751Z" fill="black"/>
<path d="M26.8146 45.6917C24.8376 44.166 23.3796 41.8901 22.91 39.239H16.5342V11.3524C19.9692 13.0781 22.4158 16.9047 22.7123 20.8563L23.6761 28.6846L23.2066 28.6096C22.1687 28.6096 21.279 29.585 21.279 30.5604C21.279 31.4607 21.971 32.2361 22.8606 32.4361L24.0221 32.7113C25.9497 29.0347 27.0371 25.4332 27.0371 21.8818C27.0371 18.6804 26.6169 15.5041 26.5675 12.2528C26.5675 10.8022 27.1112 9.4766 28.0008 8.45117C28.8905 9.50161 29.4342 10.8022 29.4342 12.2528C29.4342 15.5041 28.9646 18.7054 28.9646 21.8818C28.9646 25.4082 30.052 29.0347 31.9796 32.7113L33.1411 32.4361C34.0307 32.2361 34.7227 31.4607 34.7227 30.5604C34.7227 29.585 33.833 28.6096 32.7951 28.6096L32.3256 28.6846L33.2893 20.8563C33.7589 16.9047 36.0325 13.0781 39.4675 11.3524V39.239H33.0916C32.6221 41.8651 31.2382 44.2411 29.187 45.6917C28.7175 46.0418 28.2974 46.467 28.0256 47.0172C27.7043 46.442 27.2842 46.0418 26.8146 45.6917ZM19.5491 29.61C19.821 28.5595 20.5871 27.6592 21.5261 27.1089L20.76 20.6562C20.4882 18.6554 19.6727 16.8547 18.4371 15.3791V29.585H19.5491V29.61ZM22.7865 37.2882C22.7865 36.3128 22.9348 35.4124 23.1325 34.512L22.2428 34.3119C20.933 33.8867 19.9198 32.8613 19.5738 31.5358H18.4865V37.2882H22.7865ZM27.0123 37.2882C27.0123 36.1127 26.1227 35.0622 24.9612 34.9372C24.7635 35.6875 24.6152 36.4628 24.6152 37.2882H27.0123ZM27.0123 39.239H24.8871C25.233 40.7646 25.9744 42.1402 27.0123 43.3407V39.239ZM30.0273 33.2115C29.2118 31.6858 28.4457 30.0852 27.9761 28.4345C27.5066 30.1102 26.7405 31.6858 25.925 33.2115C26.7405 33.4116 27.4325 33.9618 27.9761 34.587C28.5198 33.9618 29.2118 33.4116 30.0273 33.2115ZM31.337 37.2882C31.337 36.4628 31.1888 35.6875 30.9911 34.9372C29.8296 35.0872 28.9399 36.1127 28.9399 37.2882H31.337ZM31.0652 39.239H28.9399V43.3407C29.9779 42.1402 30.7192 40.7646 31.0652 39.239ZM37.5152 37.2882V31.5358H36.4279C36.0819 32.8613 35.0687 33.8867 33.7589 34.3119L32.8692 34.512C33.0669 35.4124 33.2152 36.3128 33.2152 37.2882H37.5152ZM37.5152 29.61V15.4041C36.2796 16.8547 35.3899 18.6554 35.1922 20.6813L34.4261 27.1339C35.3899 27.6842 36.1313 28.5845 36.4031 29.635H37.5152V29.61Z" fill="black"/>
<path fill-rule="evenodd" clip-rule="evenodd" d="M5.11838 5.11687L5.11688 5.11838C3.08086 7.14975 2.02105 9.74917 1.48064 13.4299C0.935615 17.142 0.933333 21.8352 0.933333 27.9949C0.933333 34.1546 0.935613 38.8479 1.48065 42.5613C2.02106 46.2432 3.08095 48.8457 5.11763 50.8824L5.11838 50.8831C7.14975 52.9191 9.74917 53.9789 13.4299 54.5194C17.142 55.0644 21.8352 55.0667 27.9949 55.0667C34.1546 55.0667 38.8479 55.0644 42.5613 54.5194C46.2432 53.9789 48.8457 52.9191 50.8824 50.8824C52.9192 48.8456 53.979 46.2455 54.5194 42.5651C55.0644 38.8529 55.0667 34.1597 55.0667 27.9949C55.0667 21.8301 55.0644 17.1369 54.5194 13.4248C53.979 9.74436 52.9192 7.14429 50.8824 5.10747C48.8458 3.07588 46.2457 2.01855 42.5654 1.47942C38.853 0.935605 34.1597 0.933333 27.9949 0.933333C21.8301 0.933333 17.1369 0.935618 13.4261 1.48063C9.74692 2.021 7.1499 3.08072 5.11838 5.11687ZM51.5423 4.44751C56 8.90517 56 15.7186 56 27.9949C56 40.2713 56 47.0847 51.5423 51.5423C47.0847 56 40.2611 56 27.9949 56C15.7287 56 8.90517 56 4.45766 51.5423C0 47.0847 0 40.2611 0 27.9949C0 15.7287 0 8.90517 4.45766 4.45766C8.90517 0 15.7186 0 27.9949 0C40.2713 0 47.0847 0 51.5423 4.44751Z" fill="black"/>
<path d="M26.8146 45.6917C24.8376 44.166 23.3796 41.8901 22.91 39.239H16.5342V11.3524C19.9692 13.0781 22.4158 16.9047 22.7123 20.8563L23.6761 28.6846L23.2066 28.6096C22.1687 28.6096 21.279 29.585 21.279 30.5604C21.279 31.4607 21.971 32.2361 22.8606 32.4361L24.0221 32.7113C25.9497 29.0347 27.0371 25.4332 27.0371 21.8818C27.0371 18.6804 26.6169 15.5041 26.5675 12.2528C26.5675 10.8022 27.1112 9.4766 28.0008 8.45117C28.8905 9.50161 29.4342 10.8022 29.4342 12.2528C29.4342 15.5041 28.9646 18.7054 28.9646 21.8818C28.9646 25.4082 30.052 29.0347 31.9796 32.7113L33.1411 32.4361C34.0307 32.2361 34.7227 31.4607 34.7227 30.5604C34.7227 29.585 33.833 28.6096 32.7951 28.6096L32.3256 28.6846L33.2893 20.8563C33.7589 16.9047 36.0325 13.0781 39.4675 11.3524V39.239H33.0916C32.6221 41.8651 31.2382 44.2411 29.187 45.6917C28.7175 46.0418 28.2974 46.467 28.0256 47.0172C27.7043 46.442 27.2842 46.0418 26.8146 45.6917ZM19.5491 29.61C19.821 28.5595 20.5871 27.6592 21.5261 27.1089L20.76 20.6562C20.4882 18.6554 19.6727 16.8547 18.4371 15.3791V29.585H19.5491V29.61ZM22.7865 37.2882C22.7865 36.3128 22.9348 35.4124 23.1325 34.512L22.2428 34.3119C20.933 33.8867 19.9198 32.8613 19.5738 31.5358H18.4865V37.2882H22.7865ZM27.0123 37.2882C27.0123 36.1127 26.1227 35.0622 24.9612 34.9372C24.7635 35.6875 24.6152 36.4628 24.6152 37.2882H27.0123ZM27.0123 39.239H24.8871C25.233 40.7646 25.9744 42.1402 27.0123 43.3407V39.239ZM30.0273 33.2115C29.2118 31.6858 28.4457 30.0852 27.9761 28.4345C27.5066 30.1102 26.7405 31.6858 25.925 33.2115C26.7405 33.4116 27.4325 33.9618 27.9761 34.587C28.5198 33.9618 29.2118 33.4116 30.0273 33.2115ZM31.337 37.2882C31.337 36.4628 31.1888 35.6875 30.9911 34.9372C29.8296 35.0872 28.9399 36.1127 28.9399 37.2882H31.337ZM31.0652 39.239H28.9399V43.3407C29.9779 42.1402 30.7192 40.7646 31.0652 39.239ZM37.5152 37.2882V31.5358H36.4279C36.0819 32.8613 35.0687 33.8867 33.7589 34.3119L32.8692 34.512C33.0669 35.4124 33.2152 36.3128 33.2152 37.2882H37.5152ZM37.5152 29.61V15.4041C36.2796 16.8547 35.3899 18.6554 35.1922 20.6813L34.4261 27.1339C35.3899 27.6842 36.1313 28.5845 36.4031 29.635H37.5152V29.61Z" fill="black"/>
</svg>
