<?xml version="1.0" encoding="utf-8"?>
<svg viewBox="25.694 7.072 48 48" xmlns="http://www.w3.org/2000/svg">
  <path d="M 49.694 7.072 C 39.178 7.072 33.33 7.072 29.513 10.891 C 25.695 14.71 25.694 20.556 25.694 31.072 C 25.694 41.589 25.694 47.436 29.513 51.254 C 33.332 55.071 39.178 55.072 49.694 55.072 C 60.21 55.072 66.057 55.072 69.876 51.254 C 73.695 47.435 73.694 41.589 73.694 31.072 C 73.694 20.556 73.694 14.709 69.876 10.891 C 66.059 7.074 60.21 7.072 49.694 7.072 Z" fill="black" transform="matrix(1, 0, 0, 1, -1.4210854715202004e-14, 0)"/>
  <text style="fill: rgb(255, 255, 255); font-family: 'e-Ukraine Head'; font-size: 16.3px; white-space: pre;" x="28.762" y="37.696" transform="matrix(1, 0, 0, 1, -1.4210854715202004e-14, 0)">&lt;td&gt;</text>
</svg>