<?xml version="1.0" encoding="utf-8"?>
<svg viewBox="71.9527 437.91 62.4676 51.75" xmlns="http://www.w3.org/2000/svg">
  <path class="a" d="M 104.955 474.64 C 105.595 474.64 105.515 474.28 105.515 473.64 L 105.515 470.34 C 105.515 469.66 105.455 469.44 105.845 469.44 C 107.205 469.44 107.575 469.31 107.575 468.11 L 107.575 455.8 C 107.575 452.46 105.215 453.01 104.575 451.8 C 103.625 450.15 106.335 450.15 105.355 446.57 C 105.07 445.674 104.175 445.118 103.245 445.26 C 102.315 445.118 101.42 445.674 101.135 446.57 C 100.135 450.15 102.865 450.15 101.915 451.8 C 101.245 453.02 98.915 452.47 98.915 455.8 L 98.915 468.07 C 98.915 469.28 99.275 469.4 100.645 469.4 C 101.025 469.4 100.965 469.62 100.965 470.3 L 100.965 473.6 C 100.965 474.28 100.885 474.6 101.525 474.6 L 104.955 474.6" style="fill: rgb(0, 114, 188);" transform="matrix(1, 0, 0, 1, 7.105427357601002e-15, 7.105427357601002e-15)"/>
  <path class="a" d="M 94.245 448.03 C 93.035 449.31 91.135 452.31 92.375 454.8 C 94.905 455.8 94.715 446.8 97.865 446.94 C 99.425 448.38 97.395 452.63 96.775 454.49 C 95.995 456.79 95.375 461.62 93.895 463.95 C 92.655 465.9 93.585 472.01 93.195 474.11 C 92.195 475.11 89.305 474.42 88.095 474.22 C 88.095 471.81 87.785 469.9 87.395 466.05 C 87.395 465.27 86.535 453.36 87.195 451.92 C 88.555 448.92 95.995 443.2 97.005 442.11 C 98.015 441.02 101.055 437.91 102.265 437.91 C 103.115 438.5 102.615 439.86 102.425 440.4 C 101.215 443.4 96.005 446.4 94.245 448.03" style="fill: rgb(0, 114, 188);" transform="matrix(1, 0, 0, 1, 7.105427357601002e-15, 7.105427357601002e-15)"/>
  <path class="a" d="M 112.385 448.03 C 113.545 449.31 115.465 452.31 114.255 454.8 C 111.685 455.8 111.885 446.8 108.725 446.94 C 107.215 448.38 109.235 452.63 109.855 454.49 C 110.635 456.79 111.255 461.62 112.735 463.95 C 113.945 465.9 113.045 472.01 113.395 474.11 C 114.485 475.11 117.285 474.42 118.535 474.22 C 118.618 471.488 118.838 468.761 119.195 466.05 C 119.275 465.27 120.095 453.36 119.425 451.92 C 118.065 448.92 110.625 443.2 109.615 442.11 C 108.605 441.02 105.565 437.91 104.365 437.91 C 103.475 438.5 104.015 439.86 104.215 440.4 C 105.425 443.4 110.635 446.4 112.395 448.03" style="fill: rgb(0, 114, 188);" transform="matrix(1, 0, 0, 1, 7.105427357601002e-15, 7.105427357601002e-15)"/>
  <path class="a" d="M 83.435 443.99 C 82.775 444.62 81.285 445.04 80.275 446.4 C 79.885 445.66 80.895 443.87 82.105 442.82 C 83.064 442.001 84.122 441.305 85.255 440.75 C 85.645 441.65 84.255 443.01 83.425 443.99" style="fill: rgb(0, 114, 188);" transform="matrix(1, 0, 0, 1, 7.105427357601002e-15, 7.105427357601002e-15)"/>
  <path class="a" d="M 81.365 448.91 C 80.235 449.91 79.025 450.39 77.465 452.3 C 76.922 450.447 76.854 448.487 77.265 446.6 C 77.815 444.81 78.705 442.82 80.265 442.2 C 79.762 443.596 79.446 445.052 79.325 446.53 C 78.665 449.14 78.275 449.22 78.425 449.53 C 78.575 449.53 79.425 448.16 80.495 447.11 C 81.715 445.91 83.275 445.59 84.285 444.85 C 83.573 446.356 82.583 447.714 81.365 448.85" style="fill: rgb(0, 114, 188);" transform="matrix(1, 0, 0, 1, 7.105427357601002e-15, 7.105427357601002e-15)"/>
  <path class="a" d="M 75.865 459.67 C 74.668 457.533 74.048 455.12 74.065 452.67 C 74.145 451.07 74.925 447.37 76.065 446.82 C 75.715 450.17 76.615 450.48 76.255 453.25 C 76.255 453.41 75.865 456.25 75.865 456.45 C 76.335 456.37 75.865 453.8 81.245 450.09 C 80.085 452.09 80.625 452.74 78.515 455.43 C 77.262 456.585 76.337 458.052 75.835 459.68" style="fill: rgb(0, 114, 188);" transform="matrix(1, 0, 0, 1, 7.105427357601002e-15, 7.105427357601002e-15)"/>
  <path class="a" d="M 78.015 462.25 C 77.367 463.219 76.952 464.325 76.805 465.48 C 74.105 463.91 71.065 457.73 72.195 454.64 C 72.895 456.98 73.875 457.48 74.575 459.44 C 75.785 462.37 75.575 463.26 76.365 463.92 C 76.308 462.329 76.601 460.745 77.225 459.28 C 77.779 458.2 78.404 457.158 79.095 456.16 C 79.675 458.31 79.245 460.06 78.005 462.25" style="fill: rgb(0, 114, 188);" transform="matrix(1, 0, 0, 1, 7.105427357601002e-15, 7.105427357601002e-15)"/>
  <path class="a" d="M 80.435 467.55 C 80.359 469.291 80.148 471.023 79.805 472.73 C 75.165 471.22 72.745 465.91 72.745 463.3 C 74.155 466.5 76.215 466.46 78.955 470.98 C 79.185 469.26 78.485 470.55 78.405 467.31 C 78.485 463.92 79.185 463.8 79.295 461.69 C 80.155 462.62 80.465 466.37 80.465 467.54" style="fill: rgb(0, 114, 188);" transform="matrix(1, 0, 0, 1, 7.105427357601002e-15, 7.105427357601002e-15)"/>
  <path class="a" d="M 84.285 474.3 C 84.635 476.05 84.795 478.12 85.065 479.65 C 82.415 478.65 81.745 479.42 78.595 477.42 C 77.145 476.64 74.595 473.37 74.735 471.02 C 77.855 474.49 78.405 474.1 79.955 475.39 C 81.355 476.52 82.485 478.2 83.505 477.97 C 83.575 477.03 81.205 474.97 81.505 469.16 C 82.746 470.693 83.698 472.438 84.315 474.31" style="fill: rgb(0, 114, 188);" transform="matrix(1, 0, 0, 1, 7.105427357601002e-15, 7.105427357601002e-15)"/>
  <path class="a" d="M 89.555 478.67 C 90.375 479.84 90.185 480.34 92.285 482.76 C 90.5 483.347 88.649 483.713 86.775 483.85 C 85.455 483.85 80.775 482.6 79.215 479.4 C 81.955 480.85 81.955 480.5 85.535 481.28 C 88.115 481.87 89.945 482.68 90.645 482.61 C 90.485 482.26 88.505 481.44 87.135 479.72 C 85.765 478 86.085 475.82 84.865 474.3 C 85.685 474.07 88.865 477.81 89.545 478.67" style="fill: rgb(0, 114, 188);" transform="matrix(1, 0, 0, 1, 7.105427357601002e-15, 7.105427357601002e-15)"/>
  <path class="a" d="M 122.955 443.99 C 123.575 444.62 125.105 445.04 126.075 446.4 C 126.505 445.66 125.455 443.87 124.245 442.82 C 123.298 441.98 122.233 441.283 121.085 440.75 C 120.695 441.65 122.085 443.01 122.955 443.99" style="fill: rgb(0, 114, 188);" transform="matrix(1, 0, 0, 1, 7.105427357601002e-15, 7.105427357601002e-15)"/>
  <path class="a" d="M 125.045 448.91 C 126.135 449.91 127.345 450.39 128.905 452.3 C 129.448 450.447 129.516 448.487 129.105 446.6 C 128.595 444.81 127.655 442.82 126.105 442.2 C 126.627 443.591 126.943 445.049 127.045 446.53 C 127.705 449.14 128.095 449.22 127.945 449.53 C 127.795 449.53 126.945 448.16 125.875 447.11 C 124.695 445.91 123.125 445.59 122.085 444.85 C 122.833 446.355 123.85 447.711 125.085 448.85" style="fill: rgb(0, 114, 188);" transform="matrix(1, 0, 0, 1, 7.105427357601002e-15, 7.105427357601002e-15)"/>
  <path class="a" d="M 130.505 459.67 C 131.714 457.538 132.332 455.121 132.295 452.67 C 132.215 451.07 131.435 447.37 130.295 446.82 C 130.605 450.17 129.705 450.48 130.095 453.25 C 130.095 453.41 130.445 456.25 130.445 456.45 C 130.015 456.37 130.445 453.8 125.105 450.09 C 126.235 452.09 125.685 452.74 127.795 455.43 C 129.068 456.57 130 458.042 130.485 459.68" style="fill: rgb(0, 114, 188);" transform="matrix(1, 0, 0, 1, 7.105427357601002e-15, 7.105427357601002e-15)"/>
  <path class="a" d="M 128.395 462.25 C 129.019 463.227 129.419 464.33 129.565 465.48 C 132.255 463.92 135.335 457.72 134.165 454.64 C 133.505 456.98 132.485 457.48 131.825 459.44 C 130.575 462.37 130.765 463.26 130.035 463.92 C 130.075 462.327 129.768 460.744 129.135 459.28 C 128.596 458.192 127.97 457.149 127.265 456.16 C 126.74 458.258 127.152 460.481 128.395 462.25" style="fill: rgb(0, 114, 188);" transform="matrix(1, 0, 0, 1, 7.105427357601002e-15, 7.105427357601002e-15)"/>
  <path class="a" d="M 125.955 467.55 C 126.037 469.292 126.257 471.024 126.615 472.73 C 131.215 471.21 133.675 465.91 133.675 463.29 C 132.225 466.49 130.205 466.45 127.475 470.97 C 127.245 469.25 127.935 470.54 128.015 467.3 C 127.935 463.91 127.235 463.79 127.115 461.68 C 126.265 462.61 125.945 466.36 125.945 467.53" style="fill: rgb(0, 114, 188);" transform="matrix(1, 0, 0, 1, 7.105427357601002e-15, 7.105427357601002e-15)"/>
  <path class="a" d="M 122.085 474.3 C 121.735 476.05 121.615 478.12 121.345 479.65 C 123.955 478.65 124.625 479.42 127.775 477.42 C 129.215 476.64 131.835 473.37 131.675 471.02 C 128.555 474.49 127.975 474.11 126.495 475.39 C 125.085 476.52 123.915 478.2 122.905 477.97 C 122.825 477.03 125.205 474.97 124.905 469.16 C 123.634 470.679 122.666 472.427 122.055 474.31" style="fill: rgb(0, 114, 188);" transform="matrix(1, 0, 0, 1, 7.105427357601002e-15, 7.105427357601002e-15)"/>
  <path class="a" d="M 116.815 478.67 C 116.106 480.158 115.187 481.535 114.085 482.76 C 115.881 483.346 117.741 483.712 119.625 483.85 C 120.915 483.85 125.625 482.6 127.145 479.4 C 124.465 480.84 124.415 480.49 120.835 481.27 C 118.255 481.86 116.465 482.67 115.725 482.6 C 115.875 482.25 117.905 481.43 119.235 479.71 C 120.565 477.99 120.285 475.81 121.535 474.29 C 120.685 474.06 117.485 477.8 116.815 478.66" style="fill: rgb(0, 114, 188);" transform="matrix(1, 0, 0, 1, 7.105427357601002e-15, 7.105427357601002e-15)"/>
  <path class="a" d="M 96.535 489.66 L 95.755 489.27 C 99.188 485.5 104.121 483.454 109.215 483.69 C 117.715 484.16 117.135 486.15 121.695 485.83 C 122.205 485.83 121.305 486.46 121.305 486.46 C 118.058 487.482 114.567 487.426 111.355 486.3 C 105.895 484.43 102.355 483.3 96.535 489.65" style="fill: rgb(0, 114, 188);" transform="matrix(1, 0, 0, 1, 7.105427357601002e-15, 7.105427357601002e-15)"/>
  <path class="a" d="M 109.955 489.66 L 110.745 489.27 C 107.337 485.508 102.426 483.465 97.355 483.7 C 88.815 484.17 89.355 486.16 84.835 485.84 C 84.325 485.84 85.225 486.47 85.225 486.47 C 88.469 487.491 91.956 487.435 95.165 486.31 C 100.665 484.44 104.165 483.31 109.985 489.66" style="fill: rgb(0, 114, 188);" transform="matrix(1, 0, 0, 1, 7.105427357601002e-15, 7.105427357601002e-15)"/>
</svg>